name C:\Users\u0101727\Documents\MyRepositories\paper-ad\trackingsimulations_3d\Results\TrackSim\IK_c18.mot
datacolumns 32
datarows 16
range 3.45000000 3.69000000
endheader
time	pelvis_tilt	pelvis_list	pelvis_rotation	pelvis_tx	pelvis_ty	pelvis_tz	hip_flexion_l	hip_adduction_l	hip_rotation_l	hip_flexion_r	hip_adduction_r	hip_rotation_r	knee_angle_l	knee_angle_r	ankle_angle_l	ankle_angle_r	subtalar_angle_l	subtalar_angle_r	lumbar_extension	lumbar_bending	lumbar_rotation	arm_flex_l	arm_add_l	arm_rot_l	arm_flex_r	arm_add_r	arm_rot_r	elbow_flex_l	elbow_flex_r	pro_sup_l	pro_sup_r	
          3.45000000	         -2.16660182	          4.29781754	          4.40469178	         -0.50799517	          0.84278266	         -0.22857100	         16.92892963	          9.26635653	          2.97165962	         16.16195246	         -1.99968946	         -2.06232633	        -24.62950967	        -50.02528452	          5.79099037	        -12.66378644	          6.35106863	        -13.44630362	         -4.75602385	         -4.00112900	         -3.29327056	         -1.79397331	        -15.70390078	         17.85893505	         -4.77641242	        -16.93203314	         12.12568774	         21.36961351	         23.54015185	         86.51662706	         86.51662706	
          3.46600000	         -2.20404316	          4.22142042	          4.45389072	         -0.48921506	          0.85025216	         -0.22933411	         14.86351198	          9.18091831	          3.52939238	         18.76844507	         -2.17773832	         -1.86685994	        -23.22202936	        -51.07322850	          6.57677195	        -11.09327183	          6.13309215	        -12.76057693	         -4.85065262	         -4.00973102	         -3.92872393	         -1.61433938	        -15.92638984	         17.28622579	         -5.01127442	        -16.81437869	         12.40340379	         22.62751321	         22.98669528	         86.51662706	         86.51662706	
          3.48200000	         -2.17547837	          3.95661819	          4.42403844	         -0.47044399	          0.85744698	         -0.22993901	         12.80219070	          8.84868262	          4.00448008	         21.12401256	         -2.14069861	         -1.74696472	        -21.91241830	        -51.44546594	          7.39006947	         -9.57376539	          6.01180666	        -11.76480105	         -4.97733137	         -3.77413905	         -4.44903462	         -1.41960406	        -16.10987352	         16.78642401	         -5.31446328	        -16.74860567	         12.45865416	         23.90388105	         22.52514684	         86.51662706	         86.51662706	
          3.49800000	         -2.11456836	          3.55488508	          4.41762562	         -0.45166967	          0.86419681	         -0.23054207	         10.79590618	          8.36690063	          4.48980499	         23.25372564	         -1.99744514	         -1.89004058	        -20.74587186	        -51.37491012	          8.23636954	         -7.78425754	          5.90614475	        -10.75428540	         -5.11195749	         -3.35229141	         -4.95216177	         -1.20937429	        -16.27452673	         16.39014881	         -5.69852924	        -16.71085324	         12.21777808	         25.17300829	         22.19129783	         86.51662706	         86.51662706	
          3.51400000	         -2.03403352	          3.09051245	          4.45730412	         -0.43289110	          0.87041477	         -0.23115605	          8.85255757	          7.81791100	          4.98840756	         25.20232473	         -1.82316309	         -2.20841872	        -19.71996888	        -50.98376276	          9.10637545	         -6.39613820	          5.79325628	         -9.94207120	         -5.25558411	         -2.83583300	         -5.46263771	         -0.98787140	        -16.44419508	         16.08868621	         -6.13975625	        -16.67749324	         11.72254832	         26.42960326	         21.96290190	         86.51662706	         86.51662706	
          3.53000000	         -1.93382106	          2.62465057	          4.54576746	         -0.41409409	          0.87604703	         -0.23176404	          6.96566680	          7.26170508	          5.47189174	         26.97516834	         -1.66448875	         -2.61371682	        -18.83113670	        -50.31903239	          9.99619033	         -5.40729080	          5.67108103	         -9.57982145	         -5.41933805	         -2.30059978	         -5.98955198	         -0.76031286	        -16.63096371	         15.86005650	         -6.59866451	        -16.63390475	         11.06729299	         27.66211851	         21.78981100	         86.51662706	         86.51662706	
          3.54600000	         -1.81843336	          2.21516190	          4.65561560	         -0.39525268	          0.88105663	         -0.23232541	          5.12381308	          6.75130193	          5.89098145	         28.57161451	         -1.56277661	         -3.01751454	        -18.05802253	        -49.37373825	         10.89603276	         -4.54812175	          5.56494573	         -9.59754341	         -5.60450737	         -1.81786357	         -6.51274103	         -0.52889110	        -16.83485432	         15.68586832	         -7.03669230	        -16.57080256	         10.34692965	         28.84155605	         21.61850382	         86.51662706	         86.51662706	
          3.56200000	         -1.69104210	          1.89950370	          4.76785172	         -0.37633331	          0.88543795	         -0.23282087	          3.31143856	          6.32253387	          6.23572422	         29.96914163	         -1.55237900	         -3.39814181	        -17.37631309	        -48.06327382	         11.78919331	         -3.52637219	          5.49875909	         -9.80294513	         -5.81071593	         -1.43379318	         -7.01395051	         -0.29002083	        -17.04707118	         15.55708362	         -7.42714422	        -16.48393051	          9.63634525	         29.92833947	         21.40774376	         86.51662706	         86.51662706	
          3.57800000	         -1.55723633	          1.69290053	          4.87837928	         -0.35729016	          0.88921719	         -0.23323923	          1.51848804	          5.98945666	          6.53762504	         31.11620088	         -1.64762893	         -3.78955552	        -16.76694120	        -46.20415931	         12.65059300	         -2.03508140	          5.49199558	        -10.16665467	         -6.03002113	         -1.17115814	         -7.47991067	         -0.03693903	        -17.25748042	         15.47248288	         -7.75641600	        -16.36741050	          8.99589186	         30.87724184	         21.11894847	         86.51662706	         86.51662706	
          3.59400000	         -1.42429382	          1.57723835	          4.99840842	         -0.33807624	          0.89246371	         -0.23358431	         -0.25396604	          5.73038699	          6.82496435	         31.92748253	         -1.83024794	         -4.21889861	        -16.22146788	        -43.41650778	         13.44863727	         -0.25310366	          5.54966810	        -10.31447363	         -6.24722326	         -1.01390815	         -7.90588224	          0.23621438	        -17.45181249	         15.44135574	         -8.02169294	        -16.22038285	          8.47088257	         31.64582917	         20.71940621	         86.51662706	         86.51662706	
          3.61000000	         -1.29968106	          1.52839784	          5.13601305	         -0.31863960	          0.89524923	         -0.23386481	         -2.00372673	          5.51703650	          7.08377076	         32.36382182	         -2.08121992	         -4.72436461	        -15.72961133	        -39.57283346	         14.14852474	          1.11977533	          5.67557919	         -9.76005250	         -6.44354155	         -0.93622157	         -8.28460302	          0.53008653	        -17.61454023	         15.47897184	         -8.23185979	        -16.05078743	          8.09241973	         32.20216173	         20.19376162	         86.51662706	         86.51662706	
          3.62600000	         -1.18575280	          1.53041192	          5.30093003	         -0.29891088	          0.89764923	         -0.23408988	         -3.73108875	          5.33113462	          7.29755738	         32.41554250	         -2.38613389	         -5.37019210	        -15.28573448	        -34.84563002	         14.70132275	          1.46027315	          5.85337684	         -8.48780619	         -6.60391236	         -0.91976552	         -8.61232910	          0.84147184	        -17.73351555	         15.60251154	         -8.40316143	        -15.86849700	          7.88313690	         32.52297942	         19.53812637	         86.51662706	         86.51662706	
          3.64200000	         -1.08091438	          1.56738208	          5.52666803	         -0.27884449	          0.89974776	         -0.23429403	         -5.42304010	          5.16182860	          7.54992744	         32.09735773	         -2.74354226	         -6.24385032	        -14.91382487	        -29.53238262	         15.04508737	          0.40439633	          5.99146732	         -6.49440444	         -6.72291714	         -0.94331731	         -8.91854154	          1.16610819	        -17.80410541	         15.82634296	         -8.54218118	        -15.67929806	          7.85474857	         32.59659036	         18.75682234	         86.51662706	         86.51662706	
          3.65800000	         -0.98472444	          1.64019229	          5.81613862	         -0.25838397	          0.90154993	         -0.23443945	         -7.06232746	          5.00356419	          7.82729340	         31.51951727	         -3.12901805	         -7.36684665	        -14.64671215	        -24.21098251	         15.16015039	         -0.30958665	          6.09899095	         -3.98731528	         -6.79566408	         -1.00992661	         -9.21232152	          1.49364704	        -17.83186563	         16.14761869	         -8.65088190	        -15.48242672	          8.01148754	         32.41963930	         17.86061949	         86.51662706	         86.51662706	
          3.67400000	         -0.89501530	          1.72643992	          6.10115329	         -0.23749435	          0.90304782	         -0.23437427	         -8.62948532	          4.82252887	          8.01694714	         30.86815199	         -3.44509360	         -8.59735831	        -14.51613160	        -19.49379986	         15.06089489	          0.24618954	          6.27473490	         -1.57547667	         -6.82052702	         -1.10177747	         -9.43679950	          1.80330268	        -17.82176403	         16.54591052	         -8.72519844	        -15.28307667	          8.35052404	         32.01923307	         16.87611482	         86.51662706	         86.51662706	
          3.69000000	         -0.80545488	          1.77847219	          6.35785874	         -0.21620482	          0.90429952	         -0.23405288	        -10.08100906	          4.56530027	          8.06332509	         30.30762690	         -3.63566290	         -9.80665511	        -14.59042451	        -15.85366712	         14.75471887	          1.01774555	          6.59652631	          0.47825256	         -6.80598773	         -1.16044472	         -9.58454373	          2.06428872	        -17.77447842	         16.99383921	         -8.76019271	        -15.09708514	          8.85296112	         31.45860514	         15.86376662	         86.51662706	         86.51662706	
